<?xml version="1.0" encoding="UTF-8"?>
<svg xmlns="http://www.w3.org/2000/svg" style="stroke-dasharray:none; shape-rendering:auto; font-family:'Arial'; text-rendering:auto; fill-opacity:1; color-interpolation:auto; color-rendering:auto; font-size:12; fill:black; stroke:black; image-rendering:auto; stroke-miterlimit:10; stroke-linecap:square; stroke-linejoin:miter; font-style:normal; stroke-width:1; stroke-dashoffset:0; font-weight:normal; stroke-opacity:1;" contentScriptType="text/ecmascript" preserveAspectRatio="xMidYMid meet" zoomAndPan="magnify" version="1.0" contentStyleType="text/css" xml:xlink="http://www.w3.org/1999/xlink" width="991" height="391"><rect x="30" y="159" width="961" height="232" ry="0" rx="0" style="stroke:#000000; fill:#808080" /><g componentSequence="3"><text x="-275" y="37" transform="rotate(270)" text-anchor="middle" style="font-weight:bold;font-size:10px;stroke:none; fill:#434343"><tspan dy="14" x="-275">Jurídico</tspan></text></g><rect x="30" y="15" width="961" height="145" ry="0" rx="0" style="stroke:#000000; fill:#C0C0C0" /><g componentSequence="2"><text x="-87" y="37" transform="rotate(270)" text-anchor="middle" style="font-weight:bold;font-size:10px;stroke:none; fill:#434343"><tspan dy="14" x="-87">Solicitante</tspan></text></g><g sequence="4"><ellipse cx="87" cy="88" rx="17" ry="17" stroke-width="1" style="fill:url(#linearGradient66FF6696FF96B6FFB6_841611031);" stroke="336633" /></g><g sequence="9"><rect x="587" y="60" width="106" height="56" ry="5" rx="5" style="fill:url(#linearGradientF8FBFEEDF5FCDEEDFAD4E7F8E2E5E9_1022234402);" stroke="191970" /></g><g componentSequence="9"><text x="640" y="77" text-anchor="middle" style="font-weight:bold;font-size:10px;stroke:none; fill:#333399"><tspan dy="14" x="640">Revisar</tspan></text></g><g sequence="13"><polygon points=" 770 74 800 44 830 74 800 104 770 74" style="fill:url(#linearGradientFAFBFCFFFFCC_953261159);" stroke="000000" /></g><g componentSequence="13"><text x="800" y="107" text-anchor="middle" style="font-weight:bold;font-size:10px;stroke:none; fill:#333399"><tspan dy="14" x="800">Ok?</tspan></text></g><g sequence="16"><ellipse cx="917" cy="88" rx="17" ry="17" stroke-width="3" style="fill:url(#linearGradientFF6666FF9696FFB6B6_2110981401);" stroke="993333" /></g><g sequence="21"><rect x="170" y="189" width="106" height="70" ry="5" rx="5" style="fill:url(#linearGradientF8FBFEEDF5FCDEEDFAD4E7F8E2E5E9_4179195);" stroke="191970" /></g><g componentSequence="21"><text x="223" y="204" text-anchor="middle" style="font-weight:bold;font-size:10px;stroke:none; fill:#333399"><tspan dy="14" x="223">Analisar</tspan><tspan dy="14" x="223">solicitação</tspan></text></g><g sequence="27"><rect x="351" y="196" width="106" height="56" ry="5" rx="5" style="fill:url(#linearGradientF8FBFEEDF5FCDEEDFAD4E7F8E2E5E9_1281645761);" stroke="191970" /></g><g componentSequence="27"><text x="404" y="213" text-anchor="middle" style="font-weight:bold;font-size:10px;stroke:none; fill:#333399"><tspan dy="14" x="404">Executar tarefa</tspan></text></g><g sequence="32"><ellipse cx="87" cy="224" rx="17" ry="17" stroke-width="3" style="fill:url(#linearGradientFF6666FF9696FFB6B6_2019738510);" stroke="993333" /></g><g sequence="34"><ellipse cx="917" cy="224" rx="17" ry="17" stroke-width="3" style="fill:url(#linearGradientFF6666FF9696FFB6B6_503118422);" stroke="993333" /></g><g sequence="37"><polygon points=" 610 196 640 166 670 196 640 226 610 196" style="fill:url(#linearGradientFAFBFCFFFFCC_1671101710);" stroke="000000" /></g><g componentSequence="37"><text x="640" y="236" text-anchor="middle" style="font-weight:bold;font-size:10px;stroke:none; fill:#333399"><tspan dy="14" x="640">Encamin</tspan><tspan dy="14" x="640">har</tspan><tspan dy="14" x="640">solici...</tspan></text></g><g sequence="44"><rect x="587" y="320" width="106" height="56" ry="5" rx="5" style="fill:url(#linearGradientF8FBFEEDF5FCDEEDFAD4E7F8E2E5E9_225847272);" stroke="191970" /></g><g componentSequence="44"><text x="640" y="337" text-anchor="middle" style="font-weight:bold;font-size:10px;stroke:none; fill:#333399"><tspan dy="14" x="640">Apoio jurídico</tspan></text></g><g componentSequence="14"><text x="741" y="88" style="font-size:10px;font-weight:none;stroke:none; fill:#333399" text-anchor="left" /></g><g componentSequence="17"><text x="835" y="93" style="font-size:10px;font-weight:none;stroke:none; fill:#333399" text-anchor="left"><tspan dy="14" x="835">N</tspan></text></g><g componentSequence="22"><text x="156" y="147" style="font-size:10px;font-weight:none;stroke:none; fill:#333399" text-anchor="left" /></g><g componentSequence="28"><text x="323" y="224" style="font-size:10px;font-weight:none;stroke:none; fill:#333399" text-anchor="left" /></g><g componentSequence="33"><text x="147" y="224" style="font-size:10px;font-weight:none;stroke:none; fill:#333399" text-anchor="left" /></g><g componentSequence="36"><text x="452" y="88" style="font-size:10px;font-weight:none;stroke:none; fill:#333399" text-anchor="left" /></g><g componentSequence="38"><text x="543" y="224" style="font-size:10px;font-weight:none;stroke:none; fill:#333399" text-anchor="left" /></g><g componentSequence="39"><text x="795" y="224" style="font-size:10px;font-weight:none;stroke:none; fill:#333399" text-anchor="left" /></g><g componentSequence="40"><text x="543" y="224" style="font-size:10px;font-weight:none;stroke:none; fill:#333399" text-anchor="left" /></g><g componentSequence="41"><text x="650" y="141" style="font-size:10px;font-weight:none;stroke:none; fill:#333399" text-anchor="left" /></g><g componentSequence="42"><text x="760" y="30" style="font-size:10px;font-weight:none;stroke:none; fill:#333399" text-anchor="left"><tspan dy="14" x="760">S</tspan></text></g><g componentSequence="45"><text x="650" y="301" style="font-size:10px;font-weight:none;stroke:none; fill:#333399" text-anchor="left" /></g><g componentSequence="46"><text x="458" y="347" style="font-size:10px;font-weight:none;stroke:none; fill:#333399" text-anchor="left" /></g><path style="fill:none; stroke:#F00000;stroke-width:1" d="M99.0 100.0 L187.0 188.0" /><polygon style="fill:#F00000; stroke:#F00000;" points=" 183 177 187 188 176 184 181 182" /><polygon style="fill:#F00000; stroke:#F00000;" points=" 103 111 99 100 110 104 105 106" /><path style="fill:none; stroke:#000000;stroke-width:1" d="M693.0 88.0 L769.0 88.0" /><polygon style="fill:#000000; stroke:#000000;" points=" 759 83 769 88 759 93 761 88" /><path style="fill:none; stroke:#009600;stroke-width:1" d="M586.0 88.0 L404.0 88.0 L404.0 195.0" /><polygon style="fill:#009600; stroke:#009600;" points=" 409 185 404 195 399 185 404 187" /><path style="fill:none; stroke:#000000;stroke-width:1" d="M640.0 165.0 L640.0 116.0" /><polygon style="fill:#000000; stroke:#000000;" points=" 635 126 640 116 645 126 640 124" /><path style="fill:none; stroke:#000000;stroke-width:1" d="M830.0 88.0 L899.0 88.0" /><polygon style="fill:#000000; stroke:#000000;" points=" 889 83 899 88 889 93 891 88" /><path style="fill:none; stroke:#000000;stroke-width:1" d="M769.0 53.0 L747.0 28.0 L403.0 28.0 L403.0 195.0" /><polygon style="fill:#000000; stroke:#000000;" points=" 408 185 403 195 398 185 403 187" /><path style="fill:none; stroke:#000000;stroke-width:1" d="M276.0 224.0 L350.0 224.0" /><polygon style="fill:#000000; stroke:#000000;" points=" 340 219 350 224 340 229 342 224" /><path style="fill:none; stroke:#000000;stroke-width:1" d="M169.0 224.0 L105.0 224.0" /><polygon style="fill:#000000; stroke:#000000;" points=" 115 229 105 224 115 219 113 224" /><path style="fill:none; stroke:#000000;stroke-width:1" d="M457.0 224.0 L609.0 224.0" /><polygon style="fill:#000000; stroke:#000000;" points=" 599 219 609 224 599 229 601 224" /><path style="fill:none; stroke:#000000;stroke-width:1" d="M609.0 224.0 L457.0 224.0" /><polygon style="fill:#000000; stroke:#000000;" points=" 467 229 457 224 467 219 465 224" /><path style="fill:none; stroke:#000000;stroke-width:1" d="M586.0 347.0 L404.0 347.0 L404.0 252.0" /><polygon style="fill:#000000; stroke:#000000;" points=" 399 262 404 252 409 262 404 260" /><path style="fill:none; stroke:#000000;stroke-width:1" d="M670.0 224.0 L899.0 224.0" /><polygon style="fill:#000000; stroke:#000000;" points=" 889 219 899 224 889 229 891 224" /><path style="fill:none; stroke:#000000;stroke-width:1" d="M640.0 282.0 L640.0 319.0" /><polygon style="fill:#000000; stroke:#000000;" points=" 645 309 640 319 635 309 640 311" /><defs><linearGradient xmlns:xlink="http://www.w3.org/1999/xlink" xlink:href="#linearGradient66FF6696FF96B6FFB6" id="linearGradient66FF6696FF96B6FFB6_841611031" x1="0" y1="71.0" x2="0" y2="106.0" gradientUnits="userSpaceOnUse" xlink:type="simple" xlink:actuate="onLoad" xlink:show="other" /><linearGradient id="linearGradient66FF6696FF96B6FFB6"><stop style="stop-color:#66FF66;stop-opacity:1;" offset="0.0" id="stop66FF66" /><stop style="stop-color:#96FF96;stop-opacity:1;" offset="0.5" id="stop96FF96" /><stop style="stop-color:#B6FFB6;stop-opacity:1;" offset="1.0" id="stopB6FFB6" /></linearGradient><linearGradient xmlns:xlink="http://www.w3.org/1999/xlink" xlink:href="#linearGradientF8FBFEEDF5FCDEEDFAD4E7F8E2E5E9" id="linearGradientF8FBFEEDF5FCDEEDFAD4E7F8E2E5E9_1022234402" x1="0" y1="60.0" x2="0" y2="166.0" gradientUnits="userSpaceOnUse" xlink:type="simple" xlink:actuate="onLoad" xlink:show="other" /><linearGradient id="linearGradientF8FBFEEDF5FCDEEDFAD4E7F8E2E5E9"><stop style="stop-color:#F8FBFE;stop-opacity:1;" offset="0.0" id="stopF8FBFE" /><stop style="stop-color:#EDF5FC;stop-opacity:1;" offset="0.25" id="stopEDF5FC" /><stop style="stop-color:#DEEDFA;stop-opacity:1;" offset="0.5" id="stopDEEDFA" /><stop style="stop-color:#D4E7F8;stop-opacity:1;" offset="0.75" id="stopD4E7F8" /><stop style="stop-color:#E2E5E9;stop-opacity:1;" offset="1.0" id="stopE2E5E9" /></linearGradient><linearGradient xmlns:xlink="http://www.w3.org/1999/xlink" xlink:href="#linearGradientFAFBFCFFFFCC" id="linearGradientFAFBFCFFFFCC_953261159" x1="0" y1="44.0" x2="0" y2="104.0" gradientUnits="userSpaceOnUse" xlink:type="simple" xlink:actuate="onLoad" xlink:show="other" /><linearGradient id="linearGradientFAFBFCFFFFCC"><stop style="stop-color:#FAFBFC;stop-opacity:1;" offset="0.0" id="stopFAFBFC" /><stop style="stop-color:#FFFFCC;stop-opacity:1;" offset="1.0" id="stopFFFFCC" /></linearGradient><linearGradient xmlns:xlink="http://www.w3.org/1999/xlink" xlink:href="#linearGradientFF6666FF9696FFB6B6" id="linearGradientFF6666FF9696FFB6B6_2110981401" x1="0" y1="71.0" x2="0" y2="106.0" gradientUnits="userSpaceOnUse" xlink:type="simple" xlink:actuate="onLoad" xlink:show="other" /><linearGradient id="linearGradientFF6666FF9696FFB6B6"><stop style="stop-color:#FF6666;stop-opacity:1;" offset="0.0" id="stopFF6666" /><stop style="stop-color:#FF9696;stop-opacity:1;" offset="0.5" id="stopFF9696" /><stop style="stop-color:#FFB6B6;stop-opacity:1;" offset="1.0" id="stopFFB6B6" /></linearGradient><linearGradient xmlns:xlink="http://www.w3.org/1999/xlink" xlink:href="#linearGradientF8FBFEEDF5FCDEEDFAD4E7F8E2E5E9" id="linearGradientF8FBFEEDF5FCDEEDFAD4E7F8E2E5E9_4179195" x1="0" y1="189.0" x2="0" y2="295.0" gradientUnits="userSpaceOnUse" xlink:type="simple" xlink:actuate="onLoad" xlink:show="other" /><linearGradient xmlns:xlink="http://www.w3.org/1999/xlink" xlink:href="#linearGradientF8FBFEEDF5FCDEEDFAD4E7F8E2E5E9" id="linearGradientF8FBFEEDF5FCDEEDFAD4E7F8E2E5E9_1281645761" x1="0" y1="196.0" x2="0" y2="302.0" gradientUnits="userSpaceOnUse" xlink:type="simple" xlink:actuate="onLoad" xlink:show="other" /><linearGradient xmlns:xlink="http://www.w3.org/1999/xlink" xlink:href="#linearGradientFF6666FF9696FFB6B6" id="linearGradientFF6666FF9696FFB6B6_2019738510" x1="0" y1="207.0" x2="0" y2="242.0" gradientUnits="userSpaceOnUse" xlink:type="simple" xlink:actuate="onLoad" xlink:show="other" /><linearGradient xmlns:xlink="http://www.w3.org/1999/xlink" xlink:href="#linearGradientFF6666FF9696FFB6B6" id="linearGradientFF6666FF9696FFB6B6_503118422" x1="0" y1="207.0" x2="0" y2="242.0" gradientUnits="userSpaceOnUse" xlink:type="simple" xlink:actuate="onLoad" xlink:show="other" /><linearGradient xmlns:xlink="http://www.w3.org/1999/xlink" xlink:href="#linearGradientFAFBFCFFFFCC" id="linearGradientFAFBFCFFFFCC_1671101710" x1="0" y1="166.0" x2="0" y2="226.0" gradientUnits="userSpaceOnUse" xlink:type="simple" xlink:actuate="onLoad" xlink:show="other" /><linearGradient xmlns:xlink="http://www.w3.org/1999/xlink" xlink:href="#linearGradientF8FBFEEDF5FCDEEDFAD4E7F8E2E5E9" id="linearGradientF8FBFEEDF5FCDEEDFAD4E7F8E2E5E9_225847272" x1="0" y1="320.0" x2="0" y2="426.0" gradientUnits="userSpaceOnUse" xlink:type="simple" xlink:actuate="onLoad" xlink:show="other" /></defs></svg>
