<?xml version="1.0" encoding="UTF-8"?>
<svg xmlns="http://www.w3.org/2000/svg" style="stroke-dasharray:none; shape-rendering:auto; font-family:'Arial'; text-rendering:auto; fill-opacity:1; color-interpolation:auto; color-rendering:auto; font-size:12; fill:black; stroke:black; image-rendering:auto; stroke-miterlimit:10; stroke-linecap:square; stroke-linejoin:miter; font-style:normal; stroke-width:1; stroke-dashoffset:0; font-weight:normal; stroke-opacity:1;" contentScriptType="text/ecmascript" preserveAspectRatio="xMidYMid meet" zoomAndPan="magnify" version="1.0" contentStyleType="text/css" xml:xlink="http://www.w3.org/1999/xlink" width="1101" height="471"><rect x="30" y="189" width="1071" height="282" ry="0" rx="0" style="stroke:#000000; fill:#808080" /><g componentSequence="3"><text x="-330" y="37" transform="rotate(270)" text-anchor="middle" style="font-weight:bold;font-size:10px;stroke:none; fill:#434343"><tspan dy="14" x="-330">Jurídico</tspan></text></g><rect x="30" y="0" width="1071" height="190" ry="0" rx="0" style="stroke:#000000; fill:#C0C0C0" /><g componentSequence="2"><text x="-95" y="37" transform="rotate(270)" text-anchor="middle" style="font-weight:bold;font-size:10px;stroke:none; fill:#434343"><tspan dy="14" x="-95">Solicitante</tspan></text></g><g sequence="4"><ellipse cx="87" cy="107" rx="17" ry="17" stroke-width="1" style="fill:url(#linearGradient66FF6696FF96B6FFB6_594732313);" stroke="336633" /></g><g sequence="9"><rect x="700" y="79" width="106" height="56" ry="5" rx="5" style="fill:url(#linearGradientF8FBFEEDF5FCDEEDFAD4E7F8E2E5E9_766844679);" stroke="191970" /></g><g componentSequence="9"><text x="753" y="96" text-anchor="middle" style="font-weight:bold;font-size:10px;stroke:none; fill:#333399"><tspan dy="14" x="753">Revisar</tspan></text></g><g sequence="13"><polygon points=" 883 93 913 63 943 93 913 123 883 93" style="fill:url(#linearGradientFAFBFCFFFFCC_696946281);" stroke="000000" /></g><g componentSequence="13"><text x="913" y="126" text-anchor="middle" style="font-weight:bold;font-size:10px;stroke:none; fill:#333399"><tspan dy="14" x="913">Ok?</tspan></text></g><g sequence="16"><ellipse cx="1057" cy="107" rx="17" ry="17" stroke-width="3" style="fill:url(#linearGradientFF6666FF9696FFB6B6_1820857660);" stroke="993333" /></g><g sequence="21"><rect x="170" y="242" width="106" height="70" ry="5" rx="5" style="fill:url(#linearGradientF8FBFEEDF5FCDEEDFAD4E7F8E2E5E9_1483112345);" stroke="191970" /></g><g componentSequence="21"><text x="223" y="257" text-anchor="middle" style="font-weight:bold;font-size:10px;stroke:none; fill:#333399"><tspan dy="14" x="223">Analisar</tspan><tspan dy="14" x="223">solicitação</tspan></text></g><g sequence="27"><rect x="540" y="249" width="106" height="56" ry="5" rx="5" style="fill:url(#linearGradientF8FBFEEDF5FCDEEDFAD4E7F8E2E5E9_1563303605);" stroke="191970" /></g><g componentSequence="27"><text x="593" y="266" text-anchor="middle" style="font-weight:bold;font-size:10px;stroke:none; fill:#333399"><tspan dy="14" x="593">Executar tarefa</tspan></text></g><g sequence="32"><ellipse cx="222" cy="397" rx="17" ry="17" stroke-width="3" style="fill:url(#linearGradientFF6666FF9696FFB6B6_539634367);" stroke="993333" /></g><g sequence="34"><ellipse cx="987" cy="277" rx="17" ry="17" stroke-width="3" style="fill:url(#linearGradientFF6666FF9696FFB6B6_212331123);" stroke="993333" /></g><g sequence="37"><polygon points=" 723 256 753 226 783 256 753 286 723 256" style="fill:url(#linearGradientFAFBFCFFFFCC_1733740233);" stroke="000000" /></g><g componentSequence="37"><text x="753" y="296" text-anchor="middle" style="font-weight:bold;font-size:10px;stroke:none; fill:#333399"><tspan dy="14" x="753">Encamin</tspan><tspan dy="14" x="753">har</tspan><tspan dy="14" x="753">solici...</tspan></text></g><g sequence="44"><rect x="700" y="390" width="106" height="56" ry="5" rx="5" style="fill:url(#linearGradientF8FBFEEDF5FCDEEDFAD4E7F8E2E5E9_1252042528);" stroke="191970" /></g><g componentSequence="44"><text x="753" y="407" text-anchor="middle" style="font-weight:bold;font-size:10px;stroke:none; fill:#333399"><tspan dy="14" x="753">Apoio jurídico</tspan></text></g><g sequence="47"><polygon points=" 340 256 370 226 400 256 370 286 340 256" style="fill:url(#linearGradientFAFBFCFFFFCC_992871193);" stroke="000000" /></g><g componentSequence="47"><text x="370" y="296" text-anchor="middle" style="font-weight:bold;font-size:10px;stroke:none; fill:#333399"><tspan dy="14" x="370">Exclusiv</tspan><tspan dy="14" x="370">o</tspan></text></g><g sequence="49"><rect x="317" y="72" width="105" height="70" ry="5" rx="5" style="fill:url(#linearGradientF8FBFEEDF5FCDEEDFAD4E7F8E2E5E9_149525117);" stroke="191970" /></g><g componentSequence="49"><text x="369" y="87" text-anchor="middle" style="font-weight:bold;font-size:10px;stroke:none; fill:#333399"><tspan dy="14" x="369">Esclarecer</tspan><tspan dy="14" x="369">solicitação</tspan></text></g><g sequence="54"><ellipse cx="547" cy="107" rx="17" ry="17" stroke-width="3" style="fill:url(#linearGradientFF6666FF9696FFB6B6_1498967335);" stroke="993333" /></g><g componentSequence="14"><text x="854" y="77" style="font-size:10px;font-weight:none;stroke:none; fill:#333399" text-anchor="left" /></g><g componentSequence="17"><text x="950" y="80" style="font-size:10px;font-weight:none;stroke:none; fill:#333399" text-anchor="left"><tspan dy="14" x="950">Não (finalizar)</tspan></text></g><g componentSequence="22"><text x="97" y="211" style="font-size:10px;font-weight:none;stroke:none; fill:#333399" text-anchor="left" /></g><g componentSequence="38"><text x="694" y="247" style="font-size:10px;font-weight:none;stroke:none; fill:#333399" text-anchor="left" /></g><g componentSequence="39"><text x="806" y="228" style="font-size:10px;font-weight:none;stroke:none; fill:#333399" text-anchor="left"><tspan dy="14" x="806">Enviar parecer final e finalizar</tspan></text></g><g componentSequence="40"><text x="694" y="247" style="font-size:10px;font-weight:none;stroke:none; fill:#333399" text-anchor="left" /></g><g componentSequence="41"><text x="761" y="167" style="font-size:10px;font-weight:none;stroke:none; fill:#333399" text-anchor="left"><tspan dy="14" x="761">Revisão</tspan></text></g><g componentSequence="42"><text x="760" y="-10" style="font-size:10px;font-weight:none;stroke:none; fill:#333399" text-anchor="left"><tspan dy="14" x="760">Sim (retornar ao jurídico)</tspan></text></g><g componentSequence="45"><text x="763" y="329" style="font-size:10px;font-weight:none;stroke:none; fill:#333399" text-anchor="left"><tspan dy="14" x="763">Solicitar apoio</tspan></text></g><g componentSequence="46"><text x="602" y="385" style="font-size:10px;font-weight:none;stroke:none; fill:#333399" text-anchor="left" /></g><g componentSequence="48"><text x="318" y="247" style="font-size:10px;font-weight:none;stroke:none; fill:#333399" text-anchor="left" /></g><g componentSequence="50"><text x="379" y="154" style="font-size:10px;font-weight:none;stroke:none; fill:#333399" text-anchor="left" /></g><g componentSequence="51"><text x="233" y="98" style="font-size:10px;font-weight:none;stroke:none; fill:#333399" text-anchor="left" /></g><g componentSequence="52"><text x="480" y="247" style="font-size:10px;font-weight:none;stroke:none; fill:#333399" text-anchor="left" /></g><g componentSequence="53"><text x="954" y="137" style="font-size:10px;font-weight:none;stroke:none; fill:#333399" text-anchor="left" /></g><g componentSequence="55"><text x="434" y="60" style="font-size:10px;font-weight:none;stroke:none; fill:#333399" text-anchor="left"><tspan dy="14" x="434">3 dias - Finalizar</tspan></text></g><g componentSequence="33"><text x="232" y="316" style="font-size:10px;font-weight:none;stroke:none; fill:#333399" text-anchor="left" /></g><path style="fill:none; stroke:#000000;stroke-width:1" d="M87.0 125.0 L87.0 274.0 L169.0 276.0" /><polygon style="fill:#000000; stroke:#000000;" points=" 159 271 169 276 159 281 161 276" /><path style="fill:none; stroke:#000000;stroke-width:1" d="M806.0 107.0 L882.0 107.0" /><polygon style="fill:#000000; stroke:#000000;" points=" 872 102 882 107 872 112 874 107" /><path style="fill:none; stroke:#000000;stroke-width:1" d="M753.0 225.0 L753.0 135.0" /><polygon style="fill:#000000; stroke:#000000;" points=" 748 145 753 135 758 145 753 143" /><path style="fill:none; stroke:#000000;stroke-width:1" d="M943.0 107.0 L1039.0 107.0" /><polygon style="fill:#000000; stroke:#000000;" points=" 1029 102 1039 107 1029 112 1031 107" /><path style="fill:none; stroke:#000000;stroke-width:1" d="M913.0 62.0 L913.0 38.0 L592.0 38.0 L592.0 248.0" /><polygon style="fill:#000000; stroke:#000000;" points=" 597 238 592 248 587 238 592 240" /><path style="fill:none; stroke:#000000;stroke-width:1" d="M222.0 312.0 L222.0 380.0" /><polygon style="fill:#000000; stroke:#000000;" points=" 227 370 222 380 217 370 222 372" /><path style="fill:none; stroke:#000000;stroke-width:1" d="M646.0 277.0 L722.0 277.0" /><polygon style="fill:#000000; stroke:#000000;" points=" 712 272 722 277 712 282 714 277" /><path style="fill:none; stroke:#000000;stroke-width:1" d="M722.0 277.0 L646.0 277.0" /><polygon style="fill:#000000; stroke:#000000;" points=" 656 282 646 277 656 272 654 277" /><path style="fill:none; stroke:#000000;stroke-width:1" d="M699.0 417.0 L592.0 417.0 L592.0 305.0" /><polygon style="fill:#000000; stroke:#000000;" points=" 587 315 592 305 597 315 592 313" /><path style="fill:none; stroke:#000000;stroke-width:1" d="M783.0 277.0 L969.0 277.0" /><polygon style="fill:#000000; stroke:#000000;" points=" 959 272 969 277 959 282 961 277" /><path style="fill:none; stroke:#000000;stroke-width:1" d="M753.0 328.0 L753.0 389.0" /><polygon style="fill:#000000; stroke:#000000;" points=" 758 379 753 389 748 379 753 381" /><path style="fill:none; stroke:#000000;stroke-width:1" d="M276.0 277.0 L339.0 277.0" /><polygon style="fill:#000000; stroke:#000000;" points=" 329 272 339 277 329 282 331 277" /><path style="fill:none; stroke:#000000;stroke-width:1" d="M369.0 225.0 L369.0 142.0" /><polygon style="fill:#000000; stroke:#000000;" points=" 364 152 369 142 374 152 369 150" /><path style="fill:none; stroke:#000000;stroke-width:1" d="M316.0 107.0 L223.0 107.0 L223.0 241.0" /><polygon style="fill:#000000; stroke:#000000;" points=" 228 231 223 241 218 231 223 233" /><path style="fill:none; stroke:#000000;stroke-width:1" d="M400.0 277.0 L539.0 277.0" /><polygon style="fill:#000000; stroke:#000000;" points=" 529 272 539 277 529 282 531 277" /><path style="fill:none; stroke:#009600;stroke-width:1" d="M798.0 135.0 L849.0 167.0 L1057.0 167.0 L1057.0 125.0" /><polygon style="fill:#009600; stroke:#009600;" points=" 1052 135 1057 125 1062 135 1057 133" /><path style="fill:none; stroke:#009600;stroke-width:1" d="M422.0 107.0 L529.0 107.0" /><polygon style="fill:#009600; stroke:#009600;" points=" 519 102 529 107 519 112 521 107" /><defs><linearGradient xmlns:xlink="http://www.w3.org/1999/xlink" xlink:href="#linearGradient66FF6696FF96B6FFB6" id="linearGradient66FF6696FF96B6FFB6_594732313" x1="0" y1="90.0" x2="0" y2="125.0" gradientUnits="userSpaceOnUse" xlink:type="simple" xlink:actuate="onLoad" xlink:show="other" /><linearGradient id="linearGradient66FF6696FF96B6FFB6"><stop style="stop-color:#66FF66;stop-opacity:1;" offset="0.0" id="stop66FF66" /><stop style="stop-color:#96FF96;stop-opacity:1;" offset="0.5" id="stop96FF96" /><stop style="stop-color:#B6FFB6;stop-opacity:1;" offset="1.0" id="stopB6FFB6" /></linearGradient><linearGradient xmlns:xlink="http://www.w3.org/1999/xlink" xlink:href="#linearGradientF8FBFEEDF5FCDEEDFAD4E7F8E2E5E9" id="linearGradientF8FBFEEDF5FCDEEDFAD4E7F8E2E5E9_766844679" x1="0" y1="79.0" x2="0" y2="185.0" gradientUnits="userSpaceOnUse" xlink:type="simple" xlink:actuate="onLoad" xlink:show="other" /><linearGradient id="linearGradientF8FBFEEDF5FCDEEDFAD4E7F8E2E5E9"><stop style="stop-color:#F8FBFE;stop-opacity:1;" offset="0.0" id="stopF8FBFE" /><stop style="stop-color:#EDF5FC;stop-opacity:1;" offset="0.25" id="stopEDF5FC" /><stop style="stop-color:#DEEDFA;stop-opacity:1;" offset="0.5" id="stopDEEDFA" /><stop style="stop-color:#D4E7F8;stop-opacity:1;" offset="0.75" id="stopD4E7F8" /><stop style="stop-color:#E2E5E9;stop-opacity:1;" offset="1.0" id="stopE2E5E9" /></linearGradient><linearGradient xmlns:xlink="http://www.w3.org/1999/xlink" xlink:href="#linearGradientFAFBFCFFFFCC" id="linearGradientFAFBFCFFFFCC_696946281" x1="0" y1="63.0" x2="0" y2="123.0" gradientUnits="userSpaceOnUse" xlink:type="simple" xlink:actuate="onLoad" xlink:show="other" /><linearGradient id="linearGradientFAFBFCFFFFCC"><stop style="stop-color:#FAFBFC;stop-opacity:1;" offset="0.0" id="stopFAFBFC" /><stop style="stop-color:#FFFFCC;stop-opacity:1;" offset="1.0" id="stopFFFFCC" /></linearGradient><linearGradient xmlns:xlink="http://www.w3.org/1999/xlink" xlink:href="#linearGradientFF6666FF9696FFB6B6" id="linearGradientFF6666FF9696FFB6B6_1820857660" x1="0" y1="90.0" x2="0" y2="125.0" gradientUnits="userSpaceOnUse" xlink:type="simple" xlink:actuate="onLoad" xlink:show="other" /><linearGradient id="linearGradientFF6666FF9696FFB6B6"><stop style="stop-color:#FF6666;stop-opacity:1;" offset="0.0" id="stopFF6666" /><stop style="stop-color:#FF9696;stop-opacity:1;" offset="0.5" id="stopFF9696" /><stop style="stop-color:#FFB6B6;stop-opacity:1;" offset="1.0" id="stopFFB6B6" /></linearGradient><linearGradient xmlns:xlink="http://www.w3.org/1999/xlink" xlink:href="#linearGradientF8FBFEEDF5FCDEEDFAD4E7F8E2E5E9" id="linearGradientF8FBFEEDF5FCDEEDFAD4E7F8E2E5E9_1483112345" x1="0" y1="242.0" x2="0" y2="348.0" gradientUnits="userSpaceOnUse" xlink:type="simple" xlink:actuate="onLoad" xlink:show="other" /><linearGradient xmlns:xlink="http://www.w3.org/1999/xlink" xlink:href="#linearGradientF8FBFEEDF5FCDEEDFAD4E7F8E2E5E9" id="linearGradientF8FBFEEDF5FCDEEDFAD4E7F8E2E5E9_1563303605" x1="0" y1="249.0" x2="0" y2="355.0" gradientUnits="userSpaceOnUse" xlink:type="simple" xlink:actuate="onLoad" xlink:show="other" /><linearGradient xmlns:xlink="http://www.w3.org/1999/xlink" xlink:href="#linearGradientFF6666FF9696FFB6B6" id="linearGradientFF6666FF9696FFB6B6_539634367" x1="0" y1="380.0" x2="0" y2="415.0" gradientUnits="userSpaceOnUse" xlink:type="simple" xlink:actuate="onLoad" xlink:show="other" /><linearGradient xmlns:xlink="http://www.w3.org/1999/xlink" xlink:href="#linearGradientFF6666FF9696FFB6B6" id="linearGradientFF6666FF9696FFB6B6_212331123" x1="0" y1="260.0" x2="0" y2="295.0" gradientUnits="userSpaceOnUse" xlink:type="simple" xlink:actuate="onLoad" xlink:show="other" /><linearGradient xmlns:xlink="http://www.w3.org/1999/xlink" xlink:href="#linearGradientFAFBFCFFFFCC" id="linearGradientFAFBFCFFFFCC_1733740233" x1="0" y1="226.0" x2="0" y2="286.0" gradientUnits="userSpaceOnUse" xlink:type="simple" xlink:actuate="onLoad" xlink:show="other" /><linearGradient xmlns:xlink="http://www.w3.org/1999/xlink" xlink:href="#linearGradientF8FBFEEDF5FCDEEDFAD4E7F8E2E5E9" id="linearGradientF8FBFEEDF5FCDEEDFAD4E7F8E2E5E9_1252042528" x1="0" y1="390.0" x2="0" y2="496.0" gradientUnits="userSpaceOnUse" xlink:type="simple" xlink:actuate="onLoad" xlink:show="other" /><linearGradient xmlns:xlink="http://www.w3.org/1999/xlink" xlink:href="#linearGradientFAFBFCFFFFCC" id="linearGradientFAFBFCFFFFCC_992871193" x1="0" y1="226.0" x2="0" y2="286.0" gradientUnits="userSpaceOnUse" xlink:type="simple" xlink:actuate="onLoad" xlink:show="other" /><linearGradient xmlns:xlink="http://www.w3.org/1999/xlink" xlink:href="#linearGradientF8FBFEEDF5FCDEEDFAD4E7F8E2E5E9" id="linearGradientF8FBFEEDF5FCDEEDFAD4E7F8E2E5E9_149525117" x1="0" y1="72.0" x2="0" y2="177.0" gradientUnits="userSpaceOnUse" xlink:type="simple" xlink:actuate="onLoad" xlink:show="other" /><linearGradient xmlns:xlink="http://www.w3.org/1999/xlink" xlink:href="#linearGradientFF6666FF9696FFB6B6" id="linearGradientFF6666FF9696FFB6B6_1498967335" x1="0" y1="90.0" x2="0" y2="125.0" gradientUnits="userSpaceOnUse" xlink:type="simple" xlink:actuate="onLoad" xlink:show="other" /></defs></svg>
